<svg aria-hidden="true" style="width:0;height:0;position:absolute;overflow:hidden" xmlns="http://www.w3.org/2000/svg"><defs><symbol id="icon-close" viewBox="0 0 32 32"><path d="m16.219 14.826 4.928-4.924a1.012 1.012 0 0 0-1.43-1.428l-4.928 4.873-4.958-4.954a1.013 1.013 0 0 0-1.43 1.428l4.948 5.005-4.846 4.782a1.002 1.002 0 0 0-.284 1.139 1.014 1.014 0 0 0 1.714.29l4.836-4.833 4.806 4.802a1.013 1.013 0 0 0 1.43-1.428l-4.786-4.751z"/></symbol><symbol id="icon-deliv_off" viewBox="0 0 32 32"><path fill="#fefefe" style="fill:var(--color1,#fefefe)" d="M32 16c0 8.837-7.163 16-16 16S0 24.837 0 16 7.163 0 16 0s16 7.163 16 16z"/><path fill="#7eb101" style="fill:var(--color2,#7eb101)" d="m9.489 14.422 2.356 1c.267-.533.551-1.059.855-1.577s.626-1.015.967-1.489l-1.755-.355-2.423 2.422zm3.422 1.8 2.955 2.956a17.39 17.39 0 0 0 2.442-1.351l-.064.04c.74-.489 1.34-.963 1.8-1.422 1.2-1.2 2.081-2.43 2.644-3.689s.867-2.681.911-4.267c-1.585.045-3.007.349-4.267.911s-2.489 1.445-3.689 2.645c-.46.459-.933 1.059-1.423 1.8a17.031 17.031 0 0 0-1.266 2.269l-.045.108zM18 14.089c-.296-.296-.445-.663-.445-1.1s.149-.803.445-1.1c.296-.296.663-.444 1.1-.444s.804.148 1.1.444c.296.297.445.663.445 1.1s-.149.804-.445 1.1c-.296.297-.663.445-1.1.445s-.804-.148-1.1-.445zm-.333 8.511 2.422-2.422-.355-1.756c-.474.341-.971.663-1.489.967s-1.045.589-1.578.856l1 2.355zm7.244-15.422c.133 2.015-.119 3.851-.756 5.511S22.466 15.912 21 17.378l-.045.044-.044.045.489 2.445c.045.222.033.437-.033.644s-.181.393-.345.556l-3.8 3.822-1.889-4.4-3.778-3.778-4.4-1.889 3.823-3.8c.163-.163.348-.278.555-.345s.422-.077.645-.033l2.444.489a.181.181 0 0 1 .044-.033h.001a.187.187 0 0 0 .045-.033c1.467-1.467 3.029-2.523 4.689-3.167s3.496-.9 5.511-.767zM8.645 19.445c.518-.519 1.151-.782 1.9-.789s1.381.249 1.9.767c.518.519.773 1.152.767 1.9s-.271 1.382-.789 1.9c-.385.385-.981.704-1.789.956s-2.019.489-3.633.711c.222-1.615.455-2.829.7-3.644s.559-1.415.945-1.8zm.933.955c-.207.222-.393.571-.556 1.045s-.303 1.081-.422 1.822c.741-.119 1.348-.259 1.822-.422s.823-.349 1.045-.556c.281-.251.426-.567.433-.944l.001-.041c0-.37-.149-.705-.389-.949a1.345 1.345 0 0 0-.949-.389l-.042.001h.002a1.248 1.248 0 0 0-.943.432l-.001.002z"/></symbol><symbol id="icon-order_off" viewBox="0 0 32 32"><path fill="#fefefe" style="fill:var(--color1,#fefefe)" d="M32 16c0 8.837-7.163 16-16 16S0 24.837 0 16 7.163 0 16 0s16 7.163 16 16z"/><path fill="#7eb101" style="fill:var(--color2,#7eb101)" d="M15.667 6.222c1.348 0 2.5.471 3.455 1.411s1.433 2.085 1.433 3.433a4.9 4.9 0 0 1-.5 2.178 4.94 4.94 0 0 1-1.4 1.725l-.011.008h-.756v-1.111c.418-.33.753-.747.98-1.224l.009-.021c.217-.451.344-.98.344-1.539v-.017.001c0-.978-.348-1.807-1.044-2.489s-1.533-1.023-2.511-1.023-1.815.341-2.511 1.023c-.696.681-1.044 1.511-1.044 2.489 0 .548.115 1.067.344 1.555.237.498.571.915.982 1.239l.007.005v1.6a4.864 4.864 0 0 1-1.944-1.801l-.012-.021a4.846 4.846 0 0 1-.711-2.54v-.04.002c0-1.348.477-2.493 1.433-3.433s2.107-1.411 3.455-1.411zm-.845 18.667c-.251 0-.489-.048-.711-.144a1.86 1.86 0 0 1-.578-.389l-4.578-4.577L10.2 18.49c.207-.207.441-.367.7-.477a1.191 1.191 0 0 1 .82-.054l-.009-.002 1.733.4v-7.244c0-.623.215-1.149.644-1.578s.956-.645 1.578-.645 1.148.215 1.578.645c.429.429.644.955.644 1.578v3.822h.578c.074 0 .141.015.2.045s.126.059.2.089l3.289 1.6c.356.163.619.426.789.789s.219.737.144 1.123l-.8 4.844c-.071.431-.297.8-.618 1.053l-.004.003a1.783 1.783 0 0 1-1.143.411h-5.702zm-.177-1.334h6.244l.956-5.533L17.778 16h-1.223v-4.889c0-.267-.081-.482-.244-.645s-.378-.245-.645-.245-.481.082-.645.245c-.163.163-.244.378-.244.645v8.867l-3.423-.733-.511.511 3.8 3.8zm6.244 0z"/></symbol></defs></svg>